# Units: meters; Z up; outward-facing triangles.
o holder
s off
v -0.05700000 -0.05700000 0.00000000
v -0.05700000 -0.05100000 0.00000000
v -0.05700000 -0.05100000 0.00600000
v -0.05700000 -0.05700000 0.00600000
v -0.05100000 -0.05700000 0.00600000
v -0.05100000 -0.05700000 0.00000000
v -0.05100000 -0.05100000 0.00000000
v -0.05700000 -0.05100000 0.00850000
v -0.05700000 -0.05700000 0.00850000
v -0.05100000 -0.05700000 0.00850000
v -0.05100000 -0.05100000 0.00850000
v -0.05700000 0.05100000 0.00000000
v -0.05700000 0.05100000 0.00600000
v -0.05100000 0.05100000 0.00000000
v -0.05700000 0.05100000 0.00850000
v -0.05100000 -0.05100000 0.00600000
v -0.05100000 0.05100000 0.00600000
v -0.05100000 0.05100000 0.00850000
v -0.05700000 0.05700000 0.00000000
v -0.05700000 0.05700000 0.00600000
v -0.05100000 0.05700000 0.00600000
v -0.05100000 0.05700000 0.00000000
v -0.05700000 0.05700000 0.00850000
v -0.05100000 0.05700000 0.00850000
v 0.05100000 -0.05700000 0.00600000
v 0.05100000 -0.05700000 0.00000000
v 0.05100000 -0.05100000 0.00000000
v 0.05100000 -0.05700000 0.00850000
v 0.05100000 -0.05100000 0.00850000
v 0.05100000 -0.05100000 0.00600000
v 0.05100000 0.05100000 0.00000000
v 0.05100000 0.05100000 0.00600000
v 0.05100000 0.05700000 0.00600000
v 0.05100000 0.05700000 0.00000000
v 0.05100000 0.05100000 0.00850000
v 0.05100000 0.05700000 0.00850000
v 0.05700000 -0.05700000 0.00000000
v 0.05700000 -0.05100000 0.00000000
v 0.05700000 -0.05100000 0.00600000
v 0.05700000 -0.05700000 0.00600000
v 0.05700000 -0.05100000 0.00850000
v 0.05700000 -0.05700000 0.00850000
v 0.05700000 0.05100000 0.00000000
v 0.05700000 0.05100000 0.00600000
v 0.05700000 0.05100000 0.00850000
v 0.05700000 0.05700000 0.00000000
v 0.05700000 0.05700000 0.00600000
v 0.05700000 0.05700000 0.00850000
f 4 3 2
f 4 2 1
f 6 5 4
f 6 4 1
f 2 7 6
f 2 6 1
f 9 8 3
f 9 3 4
f 5 10 9
f 5 9 4
f 9 10 11
f 9 11 8
f 3 13 12
f 3 12 2
f 12 14 7
f 12 7 2
f 8 15 13
f 8 13 3
f 16 17 18
f 16 18 11
f 8 11 18
f 8 18 15
f 13 20 19
f 13 19 12
f 19 20 21
f 19 21 22
f 19 22 14
f 19 14 12
f 15 23 20
f 15 20 13
f 20 23 24
f 20 24 21
f 15 18 24
f 15 24 23
f 26 25 5
f 26 5 6
f 7 27 26
f 7 26 6
f 25 28 10
f 25 10 5
f 16 11 29
f 16 29 30
f 10 28 29
f 10 29 11
f 14 31 27
f 14 27 7
f 16 30 32
f 16 32 17
f 22 21 33
f 22 33 34
f 22 34 31
f 22 31 14
f 32 35 18
f 32 18 17
f 21 24 36
f 21 36 33
f 18 35 36
f 18 36 24
f 37 38 39
f 37 39 40
f 37 40 25
f 37 25 26
f 27 38 37
f 27 37 26
f 40 39 41
f 40 41 42
f 40 42 28
f 40 28 25
f 28 42 41
f 28 41 29
f 38 43 44
f 38 44 39
f 31 43 38
f 31 38 27
f 29 35 32
f 29 32 30
f 39 44 45
f 39 45 41
f 29 41 45
f 29 45 35
f 43 46 47
f 43 47 44
f 34 33 47
f 34 47 46
f 34 46 43
f 34 43 31
f 44 47 48
f 44 48 45
f 33 36 48
f 33 48 47
f 35 45 48
f 35 48 36
